<?xml version="1.0" encoding="UTF-8"?>
<svg version="1.1" xmlns="http://www.w3.org/2000/svg" width="125" height="125">
<path d="M0 0 C0.72578751 -0.0033284 1.45157501 -0.0066568 2.19935608 -0.01008606 C3.72461316 -0.01511714 5.24988111 -0.01749558 6.77514648 -0.01733398 C9.08791473 -0.01952203 11.40020637 -0.03772246 13.71289062 -0.05664062 C15.20442548 -0.0595752 16.69596256 -0.06155957 18.1875 -0.0625 C18.86795883 -0.06968552 19.54841766 -0.07687103 20.24949646 -0.08427429 C28.41818335 -0.04605112 35.63989339 1.62266288 41.5703125 7.5859375 C48.06783257 14.95484511 47.52589061 22.09900679 47.53515625 31.48046875 C47.55964844 32.77404297 47.58414063 34.06761719 47.609375 35.40039062 C47.6353488 43.86352025 47.0928328 49.61063888 41.4140625 56.19140625 C40.85589844 56.63742188 40.29773438 57.0834375 39.72265625 57.54296875 C39.16707031 58.00445312 38.61148438 58.4659375 38.0390625 58.94140625 C32.55457594 62.52171556 27.46849699 62.48874351 21.109375 62.50390625 C20.1366011 62.51056305 19.16382721 62.51721985 18.16157532 62.52407837 C16.10651535 62.53418666 14.05142269 62.53889595 11.99633789 62.53857422 C8.8687463 62.54293932 5.74257577 62.57925645 2.61523438 62.6171875 C0.61328605 62.62305782 -1.38866895 62.62702577 -3.390625 62.62890625 C-4.78164177 62.6504628 -4.78164177 62.6504628 -6.20075989 62.67245483 C-13.24995622 62.6233981 -18.5579364 61.01514583 -23.93359375 56.3515625 C-24.39765625 55.77535156 -24.86171875 55.19914062 -25.33984375 54.60546875 C-26.066875 53.73728516 -26.066875 53.73728516 -26.80859375 52.8515625 C-27.83984375 51.16796875 -27.83984375 51.16796875 -27.83984375 48.16796875 C-28.43933838 48.47089844 -29.03883301 48.77382812 -29.65649414 49.0859375 C-32.39811134 50.46110963 -35.14989905 51.81460723 -37.90234375 53.16796875 C-39.31676758 53.88339844 -39.31676758 53.88339844 -40.75976562 54.61328125 C-45.93476997 57.13767361 -49.94309372 59.00492682 -55.83984375 58.16796875 C-61.37830529 55.09104567 -61.37830529 55.09104567 -62.83984375 52.16796875 C-62.97577236 49.16422771 -63.05263274 46.18487171 -63.078125 43.1796875 C-63.08619675 42.28433792 -63.09426849 41.38898834 -63.10258484 40.46650696 C-63.11642805 38.56924376 -63.12714914 36.67195562 -63.13500977 34.7746582 C-63.15221421 31.87728481 -63.19609652 28.98105496 -63.24023438 26.08398438 C-63.25036207 24.24089381 -63.25887793 22.39779354 -63.265625 20.5546875 C-63.28313309 19.68994308 -63.30064117 18.82519867 -63.31867981 17.93424988 C-63.30402019 13.85531926 -63.16398027 11.70096742 -61.00073242 8.14379883 C-57.69509458 5.12125594 -54.54862234 4.79509979 -50.14453125 4.8515625 C-45.66779488 5.46616529 -41.82336753 7.63031373 -37.83984375 9.66796875 C-36.96972656 10.09722656 -36.09960938 10.52648437 -35.203125 10.96875 C-33.07461949 12.02130767 -30.95438798 13.08771246 -28.83984375 14.16796875 C-28.25867798 13.35283813 -28.25867798 13.35283813 -27.66577148 12.52124023 C-27.14442627 11.80524658 -26.62308105 11.08925293 -26.0859375 10.3515625 C-25.31914673 9.28893188 -25.31914673 9.28893188 -24.53686523 8.20483398 C-18.05056394 0.41959276 -9.58426986 0.01562764 0 0 Z M-15.83984375 17.16796875 C-18.51596506 21.63895087 -18.1718228 26.5448105 -18.15234375 31.60546875 C-18.16845703 32.43884766 -18.18457031 33.27222656 -18.20117188 34.13085938 C-18.20517276 39.1919815 -17.81081508 42.87656572 -14.83984375 47.16796875 C-10.59732899 50.49616127 -6.62810493 50.6074887 -1.43359375 50.56640625 C-0.23011292 50.57071152 -0.23011292 50.57071152 0.99768066 50.57510376 C2.68872791 50.57713913 4.37979898 50.57164615 6.07080078 50.55908203 C8.65190523 50.5430201 11.23144397 50.55894779 13.8125 50.578125 C15.45963886 50.57614247 17.10677674 50.5722986 18.75390625 50.56640625 C19.52174438 50.57247894 20.28958252 50.57855164 21.08068848 50.58480835 C25.62539083 50.52546863 28.53420136 49.95213865 32.16015625 47.16796875 C36.16513604 42.62083013 35.60617884 37.40501566 35.53515625 31.66796875 C35.54675781 30.73082031 35.55835938 29.79367188 35.5703125 28.828125 C35.5443804 22.73408121 34.97935832 19.05682428 30.59887695 14.56811523 C27.00306221 12.50364456 23.45074923 12.71986591 19.4140625 12.734375 C18.56593491 12.72913315 17.71780731 12.7238913 16.84397888 12.7184906 C15.0528167 12.7120762 13.26161237 12.71339989 11.47045898 12.72192383 C8.73539902 12.73042912 6.00243157 12.70167384 3.26757812 12.66992188 C1.52474021 12.66830955 -0.2181014 12.66888798 -1.9609375 12.671875 C-2.77566025 12.66064102 -3.590383 12.64940704 -4.42979431 12.63783264 C-9.49320123 12.69971965 -12.16933984 13.35591733 -15.83984375 17.16796875 Z M-50.83984375 20.16796875 C-50.83984375 27.75796875 -50.83984375 35.34796875 -50.83984375 43.16796875 C-44.88140773 42.52069458 -44.88140773 42.52069458 -40.09375 40.3203125 C-39.48466797 39.96259766 -38.87558594 39.60488281 -38.24804688 39.23632812 C-37.63896484 38.86314453 -37.02988281 38.48996094 -36.40234375 38.10546875 C-35.76619141 37.72841797 -35.13003906 37.35136719 -34.47460938 36.96289062 C-32.92351473 36.04156373 -31.38077032 35.10620282 -29.83984375 34.16796875 C-29.83984375 32.18796875 -29.83984375 30.20796875 -29.83984375 28.16796875 C-32.3964211 26.82208549 -34.9590828 25.49121547 -37.52734375 24.16796875 C-38.24857422 23.78640625 -38.96980469 23.40484375 -39.71289062 23.01171875 C-40.41865234 22.65078125 -41.12441406 22.28984375 -41.8515625 21.91796875 C-42.49569092 21.5828125 -43.13981934 21.24765625 -43.8034668 20.90234375 C-46.26296804 19.8852666 -46.26296804 19.8852666 -50.83984375 20.16796875 Z " fill="#FF4906" transform="translate(69.83984375,62.83203125)"/>
<path d="M0 0 C4.90109256 2.79776265 8.09112962 5.87656892 11.375 10.4375 C11.91769531 10.16035156 12.46039063 9.88320312 13.01953125 9.59765625 C13.73496094 9.23542969 14.45039062 8.87320312 15.1875 8.5 C15.89519531 8.14035156 16.60289063 7.78070313 17.33203125 7.41015625 C23.77862544 4.34093645 31.92640075 4.30880025 38.6875 6.5625 C45.72979663 9.73299454 50.31000908 14.57589216 53.48828125 21.59765625 C55.74428654 28.82283619 55.43409947 35.97844304 52.3125 42.875 C48.92939181 48.74540745 44.03148651 53.54819423 37.578125 55.9609375 C28.95100957 57.82708658 21.13328047 57.18409965 13.4609375 52.82421875 C11.37006737 51.43422082 9.36263637 49.97094797 7.375 48.4375 C6.78332031 48.84742188 6.19164062 49.25734375 5.58203125 49.6796875 C4.39673828 50.48792969 4.39673828 50.48792969 3.1875 51.3125 C2.41019531 51.84617188 1.63289063 52.37984375 0.83203125 52.9296875 C-6.3929382 57.36345253 -14.37033944 57.59803267 -22.625 56.4375 C-31.38235932 53.69411319 -37.41272797 49.15494016 -41.8671875 41.2265625 C-45.41104902 33.67447139 -45.935359 25.72310542 -43.9296875 17.6328125 C-40.75650413 8.85989376 -35.87981147 3.66194398 -27.67578125 -0.6171875 C-19.25837689 -4.49721008 -8.27227712 -3.90260501 0 0 Z M-26.44140625 14.08984375 C-30.67421944 18.91423083 -31.98965038 22.67843945 -31.90625 29.08984375 C-31.3199667 33.98368076 -28.79331169 37.20242764 -25.4375 40.75 C-20.40280899 43.77081461 -15.74549593 44.76096548 -9.9375 43.875 C-5.00965931 41.7365031 -1.77867925 39.1295629 1.25 34.6875 C2.91750702 29.8702575 3.42582017 25.31878111 1.6484375 20.4453125 C-1.05319337 15.32758899 -4.38728101 12.35085469 -9.6875 10.1875 C-15.85598672 8.61256722 -21.7002184 9.77689222 -26.44140625 14.08984375 Z M16.4375 25.1875 C15.1192101 29.21991615 15.09292134 32.43996282 16.375 36.4375 C18.77193631 40.35975942 20.89506316 42.60472897 25.25 44 C29.6521344 44.82228548 32.49709152 43.67475489 36.375 41.4375 C40.14444346 38.26323183 41.22061812 36.0739479 41.6875 31.125 C41.31290854 26.70482079 40.21114013 24.81020719 37.375 21.4375 C33.91384132 18.5532011 30.88664855 17.8937162 26.3671875 18.08984375 C21.70837819 18.90285165 19.07590223 21.44267103 16.4375 25.1875 Z " fill="#FF4906" transform="translate(62.625,2.5625)"/>
</svg>
