<?xml version="1.0" encoding="UTF-8"?>
<svg version="1.1" xmlns="http://www.w3.org/2000/svg" width="80" height="80">
<path d="M0 0 C0.99 0 1.98 0 3 0 C7.29 7.59 11.58 15.18 16 23 C12.99559979 25.00293347 11.29006055 25.49271626 7.8125 26.125 C6.91144531 26.29257813 6.01039062 26.46015625 5.08203125 26.6328125 C4.39496094 26.75398438 3.70789062 26.87515625 3 27 C1.26544315 24.26573198 -0.43272787 21.51060308 -2.125 18.75 C-2.61871094 17.97269531 -3.11242187 17.19539063 -3.62109375 16.39453125 C-4.30751953 15.26337891 -4.30751953 15.26337891 -5.0078125 14.109375 C-5.43723145 13.41811523 -5.86665039 12.72685547 -6.30908203 12.01464844 C-7 10 -7 10 -6.19848633 7.84960938 C-4.32111649 4.95228734 -2.3635708 2.53651501 0 0 Z " fill="#3159B2" transform="translate(29,45)"/>
<path d="M0 0 C2.92881895 3.53410821 5.4864296 7.14266767 7.875 11.0625 C8.51179688 12.08472656 9.14859375 13.10695313 9.8046875 14.16015625 C11 17 11 17 10.34765625 19.16796875 C9.68056641 20.07482422 9.68056641 20.07482422 9 21 C8.60941406 21.56203125 8.21882813 22.1240625 7.81640625 22.703125 C6.61009798 24.191281 5.30596064 25.59848127 4 27 C3.01 27 2.02 27 1 27 C-3.29 19.41 -7.58 11.82 -12 4 C-9.14521674 2.09681116 -7.58058692 1.5380901 -4.3125 0.875 C-3.50425781 0.70742187 -2.69601563 0.53984375 -1.86328125 0.3671875 C-1.24839844 0.24601563 -0.63351563 0.12484375 0 0 Z " fill="#00C6D0" transform="translate(47,8)"/>
<path d="M0 0 C5.94 1.485 5.94 1.485 12 3 C10.45417337 8.43644647 7.94579577 13.02290233 5.125 17.875 C4.69058594 18.65875 4.25617187 19.4425 3.80859375 20.25 C3.37933594 20.98992188 2.95007812 21.72984375 2.5078125 22.4921875 C2.12254395 23.16620605 1.73727539 23.84022461 1.34033203 24.53466797 C0.89802246 25.01822754 0.45571289 25.50178711 0 26 C-4 26 -4 26 -5.7734375 24.6796875 C-6.56621094 23.78636719 -6.56621094 23.78636719 -7.375 22.875 C-7.91898438 22.29492188 -8.46296875 21.71484375 -9.0234375 21.1171875 C-10 19 -10 19 -9.421875 16.1875 C-7.84057768 12.64261369 -5.96302373 9.38615367 -3.875 6.125 C-3.50246094 5.53203125 -3.12992188 4.9390625 -2.74609375 4.328125 C-1.83635 2.8818657 -0.91896202 1.44041954 0 0 Z " fill="#3467D3" transform="translate(19,31)"/>
<path d="M0 0 C4.23592916 1.56886265 6.56129938 4.27022258 9 8 C7.9401736 12.82356888 5.50897278 16.76116265 2.875 20.875 C2.50246094 21.46796875 2.12992188 22.0609375 1.74609375 22.671875 C0.83635 24.1181343 -0.08103798 25.55958046 -1 27 C-4.96 26.01 -8.92 25.02 -13 24 C-11.4691271 18.51510109 -8.85170412 14.02252324 -5.9375 9.1875 C-5.47794922 8.41212891 -5.01839844 7.63675781 -4.54492188 6.83789062 C-1.16502638 1.16502638 -1.16502638 1.16502638 0 0 Z " fill="#3B8AFF" transform="translate(62,22)"/>
<path d="M0 0 C9.24 0 18.48 0 28 0 C26 10 26 10 25 12 C17.74 12 10.48 12 3 12 C2.01 8.04 1.02 4.08 0 0 Z " fill="#3467D3" transform="translate(39,50)"/>
<path d="M0 0 C7.26 0 14.52 0 22 0 C22.99 3.96 23.98 7.92 25 12 C15.76 12 6.52 12 -3 12 C-1 2 -1 2 0 0 Z " fill="#77E4DA" transform="translate(16,18)"/>
</svg>
